<svg xmlns="http://www.w3.org/2000/svg" width="660" height="825" viewBox="0 0 660 825">
  <defs>
    <linearGradient id="g" x1="0" y1="0" x2="1" y2="1">
      <stop offset="0" stop-color="#111827"/>
      <stop offset="0.55" stop-color="#ff0050"/>
      <stop offset="1" stop-color="#00f2ea"/>
    </linearGradient>
    <filter id="shadow" x="-20%" y="-20%" width="140%" height="140%">
      <feDropShadow dx="0" dy="18" stdDeviation="18" flood-color="#000" flood-opacity="0.28"/>
    </filter>
  </defs>
  <rect width="660" height="825" fill="#f8fafc"/>
  <rect x="38" y="38" width="584" height="749" rx="42" fill="url(#g)" filter="url(#shadow)"/>
  <circle cx="540" cy="120" r="78" fill="#fff" opacity="0.16"/>
  <circle cx="110" cy="710" r="120" fill="#fff" opacity="0.12"/>
  <path d="M85 250 C180 160, 285 330, 395 230 S560 230, 590 145" fill="none" stroke="#fff" stroke-width="10" opacity="0.25" stroke-linecap="round"/>
  <rect x="88" y="94" width="180" height="38" rx="19" fill="#fff" opacity="0.92"/>
  <text x="178" y="119" text-anchor="middle" font-family="Arial, Helvetica, sans-serif" font-size="21" font-weight="800" fill="#111827">SOCIALURA</text>
  <text x="92" y="310" font-family="Arial, Helvetica, sans-serif" font-size="46" font-weight="900" fill="#fff" letter-spacing="2">TIKTOK</text>
  <text x="92" y="384" font-family="Arial, Helvetica, sans-serif" font-size="66" font-weight="900" fill="#fff" letter-spacing="1">ALGORITHME</text>
  <rect x="92" y="425" width="390" height="4" rx="2" fill="#fff" opacity="0.75"/>
  <text x="92" y="485" font-family="Arial, Helvetica, sans-serif" font-size="30" font-weight="700" fill="#fff" opacity="0.95">Créer du contenu viral</text>
  <g transform="translate(92 575)">
    <rect width="220" height="72" rx="20" fill="#fff" opacity="0.18"/>
    <text x="28" y="45" font-family="Arial, Helvetica, sans-serif" font-size="24" font-weight="800" fill="#fff">E-BOOK PDF</text>
  </g>
  <text x="92" y="724" font-family="Arial, Helvetica, sans-serif" font-size="20" font-weight="700" fill="#fff" opacity="0.8">Guide pratique • Version démo</text>
</svg>